<?xml version="1.0" standalone="no"?>
<!DOCTYPE svg PUBLIC "-//W3C//DTD SVG 20010904//EN"
 "http://www.w3.org/TR/2001/REC-SVG-20010904/DTD/svg10.dtd">
<svg version="1.0" xmlns="http://www.w3.org/2000/svg"
 width="300.000000pt" height="57.000000pt" viewBox="0 0 300.000000 57.000000"
 preserveAspectRatio="xMidYMid meet">
<metadata>
Created by potrace 1.10, written by Peter Selinger 2001-2011
</metadata>
<g transform="translate(0.000000,57.000000) scale(0.100000,-0.100000)"
fill="#000000" stroke="none">
<path d="M670 335 c0 -108 1 -115 20 -115 18 0 20 7 20 60 0 46 4 61 18 68 33
17 42 3 42 -64 0 -57 2 -64 20 -64 18 0 20 7 20 75 0 71 -2 76 -25 87 -19 8
-31 8 -50 0 -24 -11 -25 -11 -25 28 0 33 -3 40 -20 40 -19 0 -20 -7 -20 -115z"/>
<path d="M97 333 c1 -103 2 -108 23 -111 22 -4 22 -1 18 72 -2 42 -1 76 2 76
3 0 26 -34 50 -75 35 -58 50 -75 67 -75 23 0 23 2 23 110 0 108 0 110 -23 110
-22 0 -23 -3 -19 -71 5 -85 -1 -84 -54 6 -31 53 -43 65 -64 65 l-25 0 2 -107z"/>
<path d="M1066 335 c-20 -58 -36 -107 -36 -111 0 -3 10 -4 22 -2 14 2 24 12
28 27 5 20 12 24 48 25 37 1 43 -2 51 -26 7 -19 17 -28 32 -28 13 0 19 5 17
13 -3 6 -20 56 -39 110 -31 90 -35 97 -60 97 -25 0 -29 -7 -63 -105z m81 15
l10 -40 -29 0 c-24 0 -29 4 -24 16 3 9 9 27 12 40 9 35 18 30 31 -16z"/>
<path d="M2284 428 c-31 -15 -47 -51 -46 -105 0 -40 5 -52 31 -75 47 -42 115
-36 142 14 9 16 8 22 -2 29 -20 13 -29 11 -29 -5 0 -30 -74 -36 -90 -7 -5 11
-10 38 -10 60 0 51 32 77 74 62 14 -6 26 -15 26 -21 0 -8 6 -8 20 0 58 31 -54
78 -116 48z"/>
<path d="M2778 422 c-10 -2 -18 -12 -18 -23 0 -10 -6 -18 -12 -16 -7 1 -13 -5
-13 -13 0 -8 6 -14 13 -12 8 1 12 -14 12 -52 0 -63 18 -89 59 -84 36 4 42 38
7 38 -24 0 -26 3 -26 49 0 46 1 48 25 43 21 -3 25 0 25 18 0 18 -4 21 -24 18
-20 -4 -26 0 -28 16 -2 14 -9 20 -20 18z"/>
<path d="M1996 395 c-3 -8 -12 -12 -21 -9 -26 10 -65 -5 -77 -31 -9 -19 -7
-29 5 -49 14 -21 14 -25 1 -30 -11 -4 -12 -10 -5 -25 8 -14 7 -20 -4 -25 -19
-7 -19 -40 0 -56 22 -18 103 -15 126 6 40 36 17 72 -51 81 -46 6 -54 23 -12
23 38 0 66 31 58 64 -3 14 -2 28 4 31 15 9 12 35 -4 35 -8 0 -16 -7 -20 -15z
m-16 -60 c0 -18 -5 -25 -19 -25 -11 0 -23 5 -26 10 -11 18 3 40 25 40 15 0 20
-7 20 -25z m20 -125 c0 -15 -39 -32 -60 -25 -37 12 -23 35 20 35 22 0 40 -4
40 -10z"/>
<path d="M343 378 c-13 -6 -23 -15 -23 -20 0 -15 30 -21 45 -8 17 14 49 6 43
-12 -2 -6 -22 -16 -44 -23 -32 -9 -40 -15 -42 -38 -2 -16 2 -35 9 -43 15 -19
53 -18 70 2 11 14 13 14 21 0 13 -24 48 -20 48 4 0 11 -4 20 -10 20 -5 0 -10
22 -10 49 0 32 -6 55 -16 65 -18 18 -58 20 -91 4z m65 -100 c-4 -31 -48 -39
-48 -10 0 20 12 30 38 31 8 1 12 -8 10 -21z"/>
<path d="M519 371 c-19 -15 -24 -29 -24 -66 0 -54 28 -85 76 -85 31 0 74 34
64 50 -8 13 -35 13 -35 0 0 -14 -43 -13 -58 2 -28 28 -7 78 34 78 12 0 24 -6
27 -12 3 -10 8 -10 21 2 17 13 17 15 -4 32 -29 23 -72 23 -101 -1z"/>
<path d="M875 365 c-51 -51 -17 -145 53 -145 44 0 72 28 79 77 5 35 2 45 -20
67 -34 34 -79 34 -112 1z m91 -39 c10 -41 -4 -66 -36 -66 -32 0 -46 25 -36 66
9 35 63 35 72 0z"/>
<path d="M1234 373 c5 -10 19 -48 33 -85 21 -57 29 -68 48 -68 19 0 27 11 48
68 14 37 28 75 33 85 5 15 3 18 -16 15 -18 -2 -27 -15 -42 -57 -10 -30 -20
-56 -22 -58 -2 -2 -13 22 -23 54 -16 46 -24 59 -43 61 -19 3 -22 0 -16 -15z"/>
<path d="M1453 378 c-12 -6 -27 -25 -33 -42 -27 -82 58 -149 121 -96 20 16 21
21 10 29 -10 6 -22 4 -37 -6 -21 -13 -25 -12 -46 9 l-23 23 58 3 c56 3 57 4
57 32 0 49 -54 73 -107 48z m67 -38 c10 -18 8 -20 -25 -20 -49 0 -47 36 2 39
7 1 17 -8 23 -19z"/>
<path d="M1600 305 c0 -78 2 -85 20 -85 17 0 20 7 20 53 0 55 12 77 42 77 11
0 18 7 18 20 0 24 -22 26 -44 4 -15 -14 -16 -14 -16 0 0 9 -8 16 -20 16 -18 0
-20 -7 -20 -85z"/>
<path d="M1745 378 c-11 -6 -21 -12 -23 -13 -1 -1 0 -9 3 -18 6 -14 9 -14 35
1 22 13 32 14 41 5 16 -16 2 -33 -27 -33 -26 0 -64 -32 -64 -53 0 -35 63 -60
87 -36 8 8 17 7 32 -2 16 -11 23 -11 33 -1 9 9 9 15 0 24 -7 7 -12 30 -12 53
0 72 -47 105 -105 73z m63 -94 c-5 -26 -35 -41 -50 -26 -11 11 -9 16 6 28 26
19 48 18 44 -2z"/>
<path d="M2093 378 c-12 -6 -27 -25 -33 -42 -27 -82 58 -149 121 -96 20 16 21
21 10 29 -10 6 -22 4 -37 -6 -21 -13 -25 -12 -46 9 l-23 23 58 3 c56 3 57 4
57 32 0 49 -54 73 -107 48z m67 -38 c10 -18 8 -20 -30 -20 -45 0 -47 2 -24 24
21 22 41 20 54 -4z"/>
<path d="M2468 379 c-27 -15 -23 -43 5 -34 39 12 62 11 62 -5 0 -8 -14 -17
-32 -21 -60 -12 -81 -50 -47 -83 19 -20 48 -20 67 -1 13 13 16 13 27 0 7 -8
18 -15 26 -15 21 0 28 22 11 35 -12 9 -17 27 -17 63 0 40 -4 53 -19 62 -25 13
-61 12 -83 -1z m72 -93 c0 -20 -27 -39 -45 -32 -18 7 -20 32 -2 39 24 10 47 7
47 -7z"/>
<path d="M2620 304 c0 -83 1 -85 22 -82 20 3 22 8 20 45 -4 50 11 83 38 83 13
0 20 7 20 20 0 24 -17 26 -42 3 -17 -15 -18 -15 -18 0 0 10 -8 17 -20 17 -18
0 -20 -7 -20 -86z"/>
<path d="M2873 153 c-16 -6 -17 -45 -1 -61 32 -32 80 8 58 48 -10 19 -31 24
-57 13z"/>
</g>
</svg>
